<?xml version="1.0" encoding="UTF-8" standalone="no"?>
<!-- Created with Inkscape (http://www.inkscape.org/) -->

<svg
   width="200mm"
   height="200mm"
   viewBox="0 0 200 200"
   version="1.1"
   id="svg5"
   inkscape:version="1.2.2 (732a01da63, 2022-12-09)"
   sodipodi:docname="Icons.svg"
   xml:space="preserve"
   xmlns:inkscape="http://www.inkscape.org/namespaces/inkscape"
   xmlns:sodipodi="http://sodipodi.sourceforge.net/DTD/sodipodi-0.dtd"
   xmlns="http://www.w3.org/2000/svg"
   xmlns:svg="http://www.w3.org/2000/svg"><sodipodi:namedview
     id="namedview7"
     pagecolor="#7c7c7c"
     bordercolor="#000000"
     borderopacity="0.25"
     inkscape:showpageshadow="2"
     inkscape:pageopacity="0"
     inkscape:pagecheckerboard="true"
     inkscape:deskcolor="#2c2c2c"
     inkscape:document-units="mm"
     showgrid="false"
     inkscape:lockguides="false"
     inkscape:zoom="5.9651517"
     inkscape:cx="322.03708"
     inkscape:cy="197.31267"
     inkscape:window-width="1920"
     inkscape:window-height="1017"
     inkscape:window-x="1272"
     inkscape:window-y="-8"
     inkscape:window-maximized="1"
     inkscape:current-layer="layer4" /><defs
     id="defs2"><inkscape:path-effect
       effect="fill_between_many"
       method="originald"
       linkedpaths="#path2528,0,1|"
       id="path-effect4551"
       join="true"
       close="true"
       autoreverse="true" /><inkscape:path-effect
       effect="fill_between_many"
       method="originald"
       linkedpaths="#path2526,0,1|"
       id="path-effect4547" /><rect
       x="212.56795"
       y="57.668275"
       width="165.62865"
       height="65.715011"
       id="rect6538" /><rect
       x="97.231394"
       y="136.79451"
       width="52.303785"
       height="59.009398"
       id="rect6333" /><inkscape:path-effect
       effect="fillet_chamfer"
       id="path-effect350"
       is_visible="true"
       lpeversion="1"
       nodesatellites_param="C,0,0,1,0,13.229167,0,1 @ C,0,0,1,0,13.229167,0,1 @ C,0,0,1,0,13.229167,0,1 @ C,0,0,1,0,13.229167,0,1"
       unit="px"
       method="auto"
       mode="F"
       radius="50"
       chamfer_steps="1"
       flexible="false"
       use_knot_distance="true"
       apply_no_radius="true"
       apply_with_radius="true"
       only_selected="false"
       hide_knots="false" /><pattern
       id="EMFhbasepattern"
       patternUnits="userSpaceOnUse"
       width="6"
       height="6"
       x="0"
       y="0" /><rect
       x="212.56795"
       y="57.668274"
       width="165.62865"
       height="65.715012"
       id="rect6538-7" /><rect
       x="212.56795"
       y="57.668274"
       width="165.62865"
       height="65.715012"
       id="rect6586" /><rect
       x="212.56795"
       y="57.668274"
       width="165.62865"
       height="65.715012"
       id="rect6592" /><rect
       x="212.56795"
       y="57.668274"
       width="165.62865"
       height="65.715012"
       id="rect6620" /><rect
       x="106.61925"
       y="121.3716"
       width="73.426468"
       height="34.198627"
       id="rect9311" /><rect
       x="106.61925"
       y="121.3716"
       width="73.426468"
       height="34.198627"
       id="rect623" /><inkscape:path-effect
       effect="fill_between_many"
       method="originald"
       linkedpaths="#path589,0,1|"
       id="path-effect1462"
       join="true"
       close="true"
       autoreverse="true" /><inkscape:path-effect
       effect="fill_between_many"
       method="originald"
       linkedpaths="#path2528,0,1|#path2526,0,1|"
       id="path-effect2899" /><inkscape:path-effect
       effect="fill_between_many"
       method="originald"
       linkedpaths="#path2528,0,1|"
       id="path-effect2903"
       join="true"
       close="true"
       autoreverse="true" /><inkscape:path-effect
       effect="fill_between_many"
       method="originald"
       linkedpaths="#path2526,0,1|"
       id="path-effect2907" /><inkscape:path-effect
       effect="fill_between_many"
       method="originald"
       linkedpaths="#path2526-4,0,1"
       id="path-effect2907-8"
       is_visible="true"
       lpeversion="0"
       join="true"
       close="true"
       autoreverse="true" /><inkscape:path-effect
       effect="fill_between_many"
       method="originald"
       linkedpaths="#path2528-7,0,1"
       id="path-effect2903-5"
       join="true"
       close="true"
       autoreverse="true"
       is_visible="true"
       lpeversion="0" /></defs><g
     inkscape:groupmode="layer"
     id="layer6"
     inkscape:label="Iron"><rect
       style="fill:#ffffff;fill-opacity:0;stroke:none;stroke-width:4;stroke-linecap:square;stroke-linejoin:round;stroke-miterlimit:0.2;stroke-dasharray:none;stroke-opacity:1"
       id="rect4873"
       width="14.678167"
       height="14.61544"
       x="36.758144"
       y="42.717232"
       inkscape:label="Bounding Box" /><rect
       style="fill:#ff602a;fill-opacity:1;stroke:#000000;stroke-width:1;stroke-linecap:round;stroke-linejoin:miter;stroke-dasharray:none;stroke-opacity:1"
       id="rect5408"
       width="12.284908"
       height="12.284908"
       x="37.968231"
       y="43.857201" /><text
       xml:space="preserve"
       transform="matrix(0.26458333,0,0,0.26458333,-17.120968,28.919355)"
       id="text6536"
       style="font-style:normal;font-variant:normal;font-weight:bold;font-stretch:normal;font-size:40px;font-family:sans-serif;-inkscape-font-specification:'sans-serif Bold';white-space:pre;shape-inside:url(#rect6538);display:inline;fill:#000000;fill-opacity:1;stroke:none;stroke-width:3.77953;stroke-linecap:round;stroke-linejoin:miter;stroke-dasharray:none;stroke-opacity:1"><tspan
         x="212.56836"
         y="94.425781"
         id="tspan6068"><tspan
           style="font-stretch:semi-condensed;font-family:Bahnschrift;-inkscape-font-specification:'Bahnschrift Bold Semi-Condensed'"
           id="tspan6066">Fe</tspan></tspan></text></g><g
     inkscape:groupmode="layer"
     id="layer8"
     inkscape:label="Terra"><path
       style="display:inline;fill:#3bb541;fill-opacity:1;stroke:#000000;stroke-width:2.44789;stroke-linecap:square;stroke-linejoin:round;stroke-miterlimit:0.2;stroke-dasharray:none;stroke-opacity:1"
       d="m 16.936348,53.914037 c 0.372722,0.192117 5.451719,-10.084127 4.829995,-9.94226 -2.772934,1.716463 -4.77151,2.138743 -5.739539,5.174994 -0.96803,3.036252 0.536822,4.575149 0.909544,4.767266 z"
       id="path2526"
       sodipodi:nodetypes="zczz"
       transform="matrix(0.81519011,0,0,0.81887755,4.4486371,9.7596086)"
       class="UnoptimicedTransforms" /><path
       style="display:inline;fill:#3bb541;fill-opacity:1;stroke:#000000;stroke-width:2.44789;stroke-linecap:square;stroke-linejoin:round;stroke-miterlimit:0.2;stroke-dasharray:none;stroke-opacity:1"
       d="m 17.845892,55.043128 c -0.03975,-0.417572 4.359541,-7.74681 6.617721,-10.224535 2.258179,-2.477725 4.744461,-4.07373 4.705194,-3.597629 -0.445506,5.401619 0.879046,7.949666 -1.035652,11.156257 -1.210034,2.026473 -2.885265,3.535047 -5.896358,3.920453 -3.011093,0.385406 -4.35115,-0.836974 -4.390905,-1.254546 z"
       id="path2528"
       sodipodi:nodetypes="zssazz"
       transform="matrix(0.81519011,0,0,0.81887755,4.4997717,9.4514132)"
       class="UnoptimicedTransforms" /><path
       inkscape:original-d="M 0,0"
       inkscape:path-effect="#path-effect2907"
       d="m 16.936348,53.914037 c 0.372722,0.192117 5.451719,-10.084127 4.829995,-9.94226 -2.772934,1.716463 -4.77151,2.138743 -5.739539,5.174994 -0.96803,3.036252 0.536822,4.575149 0.909544,4.767266 z"
       id="path2909"
       class="UnoptimicedTransforms"
       inkscape:label="Fill2"
       style="fill:#3bb541;fill-opacity:1;stroke-width:1.22394"
       transform="matrix(0.81519011,0,0,0.81887755,4.4486371,9.7596086)" /><path
       inkscape:original-d="M 0,0"
       inkscape:path-effect="#path-effect2903"
       d="m 17.845892,55.043128 c -0.03975,-0.417572 4.359541,-7.74681 6.617721,-10.224535 2.258179,-2.477725 4.744461,-4.07373 4.705194,-3.597629 -0.445506,5.401619 0.879046,7.949666 -1.035652,11.156257 -1.210034,2.026473 -2.885265,3.535047 -5.896358,3.920453 -3.011093,0.385406 -4.35115,-0.836974 -4.390905,-1.254546 z"
       id="path2905"
       class="UnoptimicedTransforms"
       inkscape:label="Fill1"
       style="fill:#3bb541;fill-opacity:1;stroke-width:1.22394"
       transform="matrix(0.81519011,0,0,0.81887755,4.4997717,9.4514132)" /><rect
       style="fill:#ffffff;fill-opacity:0;stroke:none;stroke-width:4;stroke-linecap:square;stroke-linejoin:round;stroke-miterlimit:0.2;stroke-dasharray:none;stroke-opacity:1"
       id="rect5770"
       width="14.193547"
       height="15.790322"
       x="15.701612"
       y="41.604836" /></g><g
     inkscape:groupmode="layer"
     id="layer8-4"
     inkscape:label="Berra"
     transform="matrix(2.2648077,0,0,2.2440194,-28.813994,-89.200332)"
     style="stroke-width:0.887158;stroke-dasharray:none"><rect
       style="stroke-width:1.77431;stroke-dasharray:none;fill:#ffffff;fill-opacity:0;stroke:none;stroke-linecap:square;stroke-linejoin:round;stroke-miterlimit:0.2;stroke-opacity:1"
       id="rect5240"
       width="14.457565"
       height="15.485995"
       x="15.602924"
       y="41.762871"
       inkscape:label="Bounding Box" /><path
       style="display:inline;fill:#3bb541;fill-opacity:1;stroke:#000000;stroke-width:2.17166;stroke-linecap:square;stroke-linejoin:round;stroke-miterlimit:0.2;stroke-dasharray:none;stroke-opacity:1"
       d="m 16.936348,53.914037 c 0.372722,0.192117 5.451719,-10.084127 4.829995,-9.94226 -2.772934,1.716463 -4.77151,2.138743 -5.739539,5.174994 -0.96803,3.036252 0.536822,4.575149 0.909544,4.767266 z"
       id="path2526-4"
       sodipodi:nodetypes="zczz"
       transform="matrix(0.81519011,0,0,0.81887755,4.4486371,9.7596086)"
       class="UnoptimicedTransforms" /><path
       style="display:inline;fill:#3bb541;fill-opacity:1;stroke:#000000;stroke-width:2.17166;stroke-linecap:square;stroke-linejoin:round;stroke-miterlimit:0.2;stroke-dasharray:none;stroke-opacity:1"
       d="m 17.845892,55.043128 c -0.03975,-0.417572 4.359541,-7.74681 6.617721,-10.224535 2.258179,-2.477725 4.744461,-4.07373 4.705194,-3.597629 -0.445506,5.401619 0.879046,7.949666 -1.035652,11.156257 -1.210034,2.026473 -2.885265,3.535047 -5.896358,3.920453 -3.011093,0.385406 -4.35115,-0.836974 -4.390905,-1.254546 z"
       id="path2528-7"
       sodipodi:nodetypes="zssazz"
       transform="matrix(0.81519011,0,0,0.81887755,4.4997717,9.4514132)"
       class="UnoptimicedTransforms" /><path
       inkscape:original-d="M 0,0"
       inkscape:path-effect="#path-effect2907-8"
       d="m 16.936348,53.914037 c 0.372722,0.192117 5.451719,-10.084127 4.829995,-9.94226 -2.772934,1.716463 -4.77151,2.138743 -5.739539,5.174994 -0.96803,3.036252 0.536822,4.575149 0.909544,4.767266 z"
       id="path2909-8"
       class="UnoptimicedTransforms"
       inkscape:label="Fill2"
       style="fill:#3bb541;fill-opacity:1;stroke-width:1.08583;stroke-dasharray:none"
       transform="matrix(0.81519011,0,0,0.81887755,4.4486371,9.7596086)" /><path
       inkscape:original-d="M 0,0"
       inkscape:path-effect="#path-effect2903-5"
       d="m 17.845892,55.043128 c -0.03975,-0.417572 4.359541,-7.74681 6.617721,-10.224535 2.258179,-2.477725 4.744461,-4.07373 4.705194,-3.597629 -0.445506,5.401619 0.879046,7.949666 -1.035652,11.156257 -1.210034,2.026473 -2.885265,3.535047 -5.896358,3.920453 -3.011093,0.385406 -4.35115,-0.836974 -4.390905,-1.254546 z"
       id="path2905-6"
       class="UnoptimicedTransforms"
       inkscape:label="Fill1"
       style="fill:#3bb541;fill-opacity:1;stroke-width:1.08583;stroke-dasharray:none"
       transform="matrix(0.81519011,0,0,0.81887755,4.4997717,9.4514132)" /></g><g
     inkscape:groupmode="layer"
     id="layer5-2"
     inkscape:label="x1 Materials"
     transform="translate(12.037439,46.295675)"><circle
       style="display:inline;fill:#ffffff;fill-opacity:1;stroke:#000000;stroke-width:1;stroke-linecap:round;stroke-linejoin:miter;stroke-dasharray:none;stroke-opacity:1"
       id="circle331"
       cx="48.070976"
       cy="37.574329"
       r="20" /></g><g
     inkscape:groupmode="layer"
     id="layer7"
     inkscape:label="Data Storage"><circle
       style="display:inline;fill:#ffffff;fill-opacity:1;stroke:#000000;stroke-width:0.999998;stroke-linecap:round;stroke-linejoin:miter;stroke-dasharray:none;stroke-opacity:1"
       id="circle887"
       cx="63.052765"
       cy="67.987015"
       r="5.500001"
       transform="translate(12.037439,46.295675)" /></g><g
     inkscape:groupmode="layer"
     id="layer1"
     inkscape:label="Data"
     transform="matrix(0.8992746,0,0,0.8992746,13.182972,5.0798518)"
     style="stroke-width:1.11201"><rect
       style="fill:#ffffff;fill-opacity:0;stroke:none;stroke-width:4.44803;stroke-linecap:square;stroke-linejoin:round;stroke-miterlimit:0.2;stroke-dasharray:none;stroke-opacity:1"
       id="rect5243"
       width="18.002708"
       height="17.061804"
       x="121.87897"
       y="41.901779"
       inkscape:label="Bounding Box" /><path
       inkscape:original-d="M 0,0"
       inkscape:path-effect="#path-effect1462"
       d="m 121.54045,-2.8874719 c -0.23585,0.00255 -0.47587,0.049276 -0.70796,0.1297079 h -5.2e-4 c -0.53049,0.1838446 -1.05955,0.5324289 -1.59939,1.0076904 -0.15276,0.1344882 -0.30628,0.2803636 -0.45992,0.4351156 -0.15292,-0.1532697 -0.30617,-0.2976223 -0.45837,-0.4309815 -0.5418,-0.4747634 -1.0754,-0.8243151 -1.60713,-1.0082072 -0.53172,-0.1838923 -1.1032,-0.1926201 -1.56838,0.097669 -0.46574,0.2906366 -0.71959,0.7993256 -0.83406,1.3714925 -0.11447,0.57216685 -0.10317,1.2371167 0.004,1.97817382 0.0374,0.25838441 0.0873,0.52670318 0.14832,0.80201818 -0.26358,0.0779 -0.51514,0.1628027 -0.7519,0.2547649 -0.66394,0.2578907 -1.21934,0.5690985 -1.63504,0.9513631 -0.4157,0.3822646 -0.7028,0.8677068 -0.7028,1.4118001 0,0.5446105 0.28846,1.0301891 0.70487,1.4123169 0.4164,0.3821279 0.97217,0.6914547 1.63659,0.9492961 0.23461,0.091042 0.48384,0.1749105 0.74466,0.252181 -0.0614,0.2763096 -0.11147,0.544975 -0.14883,0.8040852 -0.10665,0.7395656 -0.11743,1.4022319 -0.002,1.9730062 0.11541,0.5707747 0.37138,1.0788917 0.83613,1.3689097 0.46353,0.289261 1.03472,0.279949 1.56218,0.0956 0.52746,-0.184345 1.05292,-0.531799 1.59008,-1.005624 0.15501,-0.1367322 0.31049,-0.2857044 0.46664,-0.4433837 0.15793,0.1592137 0.31579,0.3095932 0.47284,0.4475179 0.54048,0.4746768 1.07041,0.8241308 1.60145,1.0076908 0.53104,0.18356 1.10408,0.189318 1.56838,-0.103871 0.46359,-0.292737 0.71752,-0.801358 0.83199,-1.3730418 0.11448,-0.5716844 0.10371,-1.2351312 -0.004,-1.9745565 -0.0372,-0.2566639 -0.0871,-0.5228887 -0.14779,-0.7963338 0.26112,-0.077276 0.51034,-0.1611331 0.74517,-0.252181 0.665,-0.2578301 1.22207,-0.5671584 1.63866,-0.9492961 0.41659,-0.3821376 0.70539,-0.8677069 0.70539,-1.4123169 0,-0.5446098 -0.2888,-1.0317292 -0.70539,-1.4138672 -0.41659,-0.3821381 -0.97366,-0.6914655 -1.63866,-0.949296 -0.23702,-0.091896 -0.48862,-0.1769038 -0.75241,-0.2547649 0.061,-0.2739693 0.11117,-0.54067895 0.14883,-0.79788407 0.10837,-0.74017071 0.12084,-1.40411131 0.008,-1.97662353 -0.11277,-0.5725121 -0.36548,-1.0839053 -0.82992,-1.3771769 -0.26104,-0.1648346 -0.55718,-0.2342767 -0.86042,-0.2309937 z"
       id="path1464"
       class="UnoptimicedTransforms"
       style="fill:#000000;fill-opacity:1;stroke:#000000;stroke-width:2.00161;stroke-dasharray:none;stroke-opacity:1"
       transform="translate(12.037439,46.295675)" /><path
       id="path589"
       style="color:#000000;display:inline;fill:#2980b9;fill-opacity:1;stroke:#ffffff;stroke-width:0;stroke-dasharray:none;stroke-opacity:1"
       d="m 121.54045,-2.8874719 c -0.23585,0.00255 -0.47587,0.049276 -0.70796,0.1297079 h -5.2e-4 c -0.53049,0.1838446 -1.05955,0.5324289 -1.59939,1.0076904 -0.15276,0.1344882 -0.30628,0.2803636 -0.45992,0.4351156 -0.15292,-0.1532697 -0.30617,-0.2976223 -0.45837,-0.4309815 -0.5418,-0.4747634 -1.0754,-0.8243151 -1.60713,-1.0082072 -0.53172,-0.1838923 -1.1032,-0.1926201 -1.56838,0.097669 -0.46574,0.2906366 -0.71959,0.7993256 -0.83406,1.3714925 -0.11447,0.57216685 -0.10317,1.2371167 0.004,1.97817382 0.0374,0.25838441 0.0873,0.52670318 0.14832,0.80201818 -0.26358,0.0779 -0.51514,0.1628027 -0.7519,0.2547649 -0.66394,0.2578907 -1.21934,0.5690985 -1.63504,0.9513631 -0.4157,0.3822646 -0.7028,0.8677068 -0.7028,1.4118001 0,0.5446105 0.28846,1.0301891 0.70487,1.4123169 0.4164,0.3821279 0.97217,0.6914547 1.63659,0.9492961 0.23461,0.091042 0.48384,0.1749105 0.74466,0.252181 -0.0614,0.2763096 -0.11147,0.544975 -0.14883,0.8040852 -0.10665,0.7395656 -0.11743,1.4022319 -0.002,1.9730062 0.11541,0.5707747 0.37138,1.0788917 0.83613,1.3689097 0.46353,0.289261 1.03472,0.279949 1.56218,0.0956 0.52746,-0.184345 1.05292,-0.531799 1.59008,-1.005624 0.15501,-0.1367322 0.31049,-0.2857044 0.46664,-0.4433837 0.15793,0.1592137 0.31579,0.3095932 0.47284,0.4475179 0.54048,0.4746768 1.07041,0.8241308 1.60145,1.0076908 0.53104,0.18356 1.10408,0.189318 1.56838,-0.103871 0.46359,-0.292737 0.71752,-0.801358 0.83199,-1.3730418 0.11448,-0.5716844 0.10371,-1.2351312 -0.004,-1.9745565 -0.0372,-0.2566639 -0.0871,-0.5228887 -0.14779,-0.7963338 0.26112,-0.077276 0.51034,-0.1611331 0.74517,-0.252181 0.665,-0.2578301 1.22207,-0.5671584 1.63866,-0.9492961 0.41659,-0.3821376 0.70539,-0.8677069 0.70539,-1.4123169 0,-0.5446098 -0.2888,-1.0317292 -0.70539,-1.4138672 -0.41659,-0.3821381 -0.97366,-0.6914655 -1.63866,-0.949296 -0.23702,-0.091896 -0.48862,-0.1769038 -0.75241,-0.2547649 0.061,-0.2739693 0.11117,-0.54067895 0.14883,-0.79788407 0.10837,-0.74017071 0.12084,-1.40411131 0.008,-1.97662353 -0.11277,-0.5725121 -0.36548,-1.0839053 -0.82992,-1.3771769 -0.26104,-0.1648346 -0.55718,-0.2342767 -0.86042,-0.2309937 z m 10e-4,0.9942546 c 0.13513,-0.00423 0.23793,0.027353 0.32556,0.082682 0.15541,0.098134 0.30255,0.3164882 0.38292,0.7245036 0.0804,0.40801539 0.0795,0.97552788 -0.0176,1.63865962 -0.0327,0.22323194 -0.0768,0.45792688 -0.13074,0.70073238 -0.46826,-0.096812 -0.96457,-0.1728097 -1.48311,-0.2268595 -0.37795,-0.58903799 -0.77146,-1.12552723 -1.17047,-1.6004191 0.15023,-0.15335971 0.29878,-0.29605372 0.44441,-0.42426351 0.47487,-0.41806299 0.92116,-0.69435069 1.26763,-0.81442059 0.15158,-0.052531 0.27627,-0.077325 0.38137,-0.080615 z m -5.59036,0.0031 c 0.1152,-0.00305 0.25518,0.021206 0.42995,0.081649 0.34954,0.1208855 0.79696,0.3970107 1.27331,0.8144206 0.14542,0.12742968 0.29358,0.26937301 0.44338,0.42167969 -0.39745,0.47429597 -0.79003,1.00959488 -1.16892,1.59680171 -0.52536,0.054147 -1.02803,0.1308954 -1.50172,0.2289266 -0.0538,-0.2434236 -0.0979,-0.47902265 -0.13022,-0.70279943 -0.096,-0.66339661 -0.0934,-1.23271275 -0.0119,-1.64020997 0.0815,-0.4074973 0.22882,-0.6226553 0.38292,-0.7188192 0.0773,-0.048256 0.16799,-0.078602 0.28319,-0.081649 z m 2.82205,2.07274167 c 0.19328,0.23609492 0.38665,0.48991532 0.57826,0.75912679 -0.19401,-0.006101 -0.38953,-0.0103353 -0.58756,-0.0103353 -0.19171,0 -0.38104,0.0041 -0.56896,0.009819 0.19196,-0.26895939 0.38527,-0.52262441 0.57826,-0.75861049 z m -0.009,1.74924723 c 0.43405,0 0.85758,0.016647 1.26814,0.047542 0.18454,0.305564 0.36494,0.6244908 0.53847,0.956014 h 0.002 v 0.00207 c 0.20715,0.3908169 0.39573,0.781195 0.56741,1.1668538 -0.17235,0.3909724 -0.36168,0.7868209 -0.56947,1.1828735 -3.3e-4,6.267e-4 3.3e-4,0.00145 0,0.00207 -0.1806,0.3321608 -0.36661,0.6513942 -0.55604,0.9575643 -0.40511,0.029887 -0.8227,0.045992 -1.25057,0.045992 -0.42854,0 -0.84731,-0.01638 -1.25315,-0.046509 -0.18676,-0.3066743 -0.36939,-0.6264766 -0.54571,-0.9591146 -0.20869,-0.3937279 -0.39935,-0.7872558 -0.57206,-1.1761555 0.17266,-0.3879195 0.36315,-0.7803355 0.57206,-1.1735718 0.17668,-0.332562 0.35949,-0.652595 0.54622,-0.9591146 0.40545,-0.029995 0.82403,-0.046509 1.25264,-0.046509 z m -2.49184,0.1870687 c -0.0641,0.1151985 -0.12744,0.231769 -0.19017,0.3498494 -0.0666,0.1253333 -0.13058,0.2505836 -0.19378,0.3756877 -0.0741,-0.2100694 -0.14266,-0.4171065 -0.20464,-0.6201172 0.19054,-0.038438 0.38686,-0.073944 0.58859,-0.1054199 z m 4.99815,0.0031 c 0.19665,0.03094 0.38808,0.065291 0.57412,0.1028361 -0.0609,0.1993799 -0.12754,0.4025158 -0.19999,0.6087483 -0.061,-0.1208443 -0.12293,-0.2417358 -0.18706,-0.3627685 -0.0616,-0.1176648 -0.12405,-0.2340475 -0.18707,-0.3488159 z m -6.55929,0.342098 c 0.15984,0.5319835 0.35779,1.0836548 0.59221,1.6453776 -0.23604,0.5635035 -0.4353,1.1166132 -0.59583,1.6495117 -0.22546,-0.067135 -0.43918,-0.1391749 -0.63717,-0.2160075 -0.58445,-0.22681 -1.03924,-0.4945858 -1.32188,-0.7539592 -0.28265,-0.2593733 -0.38086,-0.4791709 -0.38086,-0.6759277 0,-0.1972738 0.0989,-0.4182408 0.38086,-0.677478 0.28191,-0.2592374 0.73654,-0.5271976 1.32033,-0.7539592 0.19952,-0.077501 0.41484,-0.1499247 0.64234,-0.2175577 z m 8.10906,0.00103 c 0.22841,0.067839 0.44462,0.1409304 0.64492,0.2185913 0.58503,0.2268217 1.04121,0.4945952 1.32395,0.7539591 0.28275,0.259364 0.38086,0.4786537 0.38086,0.675411 0,0.1967574 -0.0981,0.4165642 -0.38086,0.6759277 -0.28274,0.2593636 -0.73892,0.5271379 -1.32395,0.7539592 -0.19817,0.076836 -0.41198,0.1488714 -0.63768,0.2160075 -0.16075,-0.5346632 -0.36,-1.0890447 -0.59635,-1.6541626 0.23231,-0.5599396 0.42979,-1.1094924 0.58911,-1.6396932 z m -6.93291,2.9124837 c 0.0634,0.1259277 0.12798,0.2521685 0.19482,0.3782715 0.0625,0.1178263 0.12583,0.2338597 0.18966,0.3488159 -0.20213,-0.031593 -0.39868,-0.066833 -0.58963,-0.1054199 0.0622,-0.2034998 0.13069,-0.4109381 0.20515,-0.6216675 z m 5.76192,5.168e-4 c 0.0743,0.2103669 0.14302,0.4174337 0.20516,0.6206339 -0.1917,0.038726 -0.38922,0.074243 -0.59221,0.1059367 0.0644,-0.1135582 0.12799,-0.2288312 0.1912,-0.3451986 l 0.002,-0.00155 0.002,-0.00413 c 0.0658,-0.1253509 0.1292,-0.2505272 0.19171,-0.3756876 z m 0.46199,1.5906006 c 0.0534,0.2415493 0.097,0.4750136 0.12919,0.697115 0.096,0.661575 0.0934,1.229476 0.0119,1.6365926 -0.0815,0.4071166 -0.22874,0.6242852 -0.38499,0.722953 -0.15554,0.09822 -0.36164,0.12369 -0.709,0.0036 -0.34735,-0.1200662 -0.7938,-0.3969227 -1.26917,-0.8144199 -0.14984,-0.1315925 -0.30326,-0.2780461 -0.45786,-0.4361491 0.39381,-0.4693483 0.78457,-0.997979 1.16324,-1.5776815 0.5308,-0.054535 1.03839,-0.1327829 1.5167,-0.2320271 z m -6.68538,0.00103 c 0.47407,0.098353 0.97729,0.1756087 1.50275,0.2299601 0.37416,0.5794029 0.76231,1.1082655 1.15549,1.5776815 -0.15399,0.1577807 -0.30593,0.3043569 -0.45476,0.4356323 -0.47296,0.4171978 -0.91403,0.6922078 -1.2578,0.8123537 -0.34376,0.120145 -0.54702,0.09754 -0.70332,0 -0.1551,-0.096783 -0.30295,-0.3130954 -0.38499,-0.7188193 -0.082,-0.405724 -0.0835,-0.9715405 0.0119,-1.6329753 0.0323,-0.2241544 0.0768,-0.4596633 0.13074,-0.703833 z m 2.76883,0.3136759 c 0.18808,0.00575 0.37765,0.0093 0.56947,0.0093 0.1882,0 0.37404,-0.00327 0.55862,-0.00879 -0.18807,0.2611848 -0.37706,0.5074379 -0.56534,0.7374227 -0.1879,-0.2301384 -0.37606,-0.4766852 -0.56275,-0.7379395 z"
       class="UnoptimicedTransforms"
       transform="translate(12.037439,46.295675)" /><path
       class="cls-4"
       d="m 118.76402,5.4202871 a 1.313158,1.316966 0 1 0 -1.30398,-1.3077553 1.3039751,1.3077565 0 0 0 1.30398,1.3077553"
       id="path595"
       style="fill:#2980b9;fill-opacity:1;stroke-width:0.294218"
       transform="translate(12.037439,46.295675)" /></g><g
     inkscape:groupmode="layer"
     id="g621"
     inkscape:label="x5 Materials"
     transform="translate(63.311633,45.585999)"><circle
       style="fill:#ffffff;fill-opacity:1;stroke:#000000;stroke-width:1;stroke-linecap:round;stroke-linejoin:miter;stroke-dasharray:none;stroke-opacity:1"
       id="circle611"
       cx="39.680302"
       cy="39.131744"
       r="20" /><circle
       style="fill:#ffffff;fill-opacity:1;stroke:#000000;stroke-width:0.999999;stroke-linecap:round;stroke-linejoin:miter;stroke-dasharray:none;stroke-opacity:1"
       id="circle613"
       cx="39.680302"
       cy="39.131744"
       r="18.243639" /><text
       xml:space="preserve"
       transform="matrix(0.42535981,0,0,0.42535981,-10.285298,-12.587197)"
       id="text619"
       style="font-style:normal;font-variant:normal;font-weight:bold;font-stretch:semi-condensed;font-size:20px;line-height:0;font-family:Bahnschrift;-inkscape-font-specification:'Bahnschrift Bold Semi-Condensed';white-space:pre;shape-inside:url(#rect623);display:inline;fill:#ffffff;fill-opacity:1;stroke:#000000;stroke-width:2.35095;stroke-linecap:round;stroke-linejoin:miter;stroke-dasharray:none;stroke-opacity:1"><tspan
         x="106.61914"
         y="127.25"
         id="tspan6072"><tspan
           style="font-stretch:normal;-inkscape-font-specification:'Bahnschrift Bold';fill:#000000;stroke:none"
           id="tspan6070">x5</tspan></tspan></text></g><g
     inkscape:groupmode="layer"
     id="layer5"
     inkscape:label="Titatnium"><rect
       style="fill:#000000;fill-opacity:1;stroke:#ffffff;stroke-width:1;stroke-linecap:round;stroke-linejoin:miter;stroke-dasharray:none;stroke-opacity:1"
       id="rect5408-2"
       width="10.5234"
       height="10.5234"
       x="73.294991"
       y="-13.108215"
       transform="rotate(45)" /><text
       xml:space="preserve"
       transform="matrix(0.26458333,0,0,0.26458333,2.1205841,29.041857)"
       id="text6536-0"
       style="font-style:normal;font-variant:normal;font-weight:bold;font-stretch:normal;font-size:40px;font-family:sans-serif;-inkscape-font-specification:'sans-serif Bold';white-space:pre;shape-inside:url(#rect6538-7);display:inline;fill:#ffffff;fill-opacity:1;stroke:none;stroke-width:3.77953;stroke-linecap:round;stroke-linejoin:miter;stroke-dasharray:none;stroke-opacity:1"><tspan
         x="212.56836"
         y="94.425781"
         id="tspan6076"><tspan
           style="font-stretch:condensed;font-family:Bahnschrift;-inkscape-font-specification:'Bahnschrift Bold Condensed'"
           id="tspan6074">Ti</tspan></tspan></text></g><g
     inkscape:groupmode="layer"
     id="layer2"
     inkscape:label="Gold"><path
       sodipodi:type="star"
       style="fill:#fffa37;fill-opacity:1;stroke:#000000;stroke-width:0.984306;stroke-linecap:round;stroke-linejoin:miter;stroke-dasharray:none;stroke-opacity:1"
       id="path6277"
       inkscape:flatsided="true"
       sodipodi:sides="6"
       sodipodi:cx="49.679955"
       sodipodi:cy="13.29817"
       sodipodi:r1="7.5533566"
       sodipodi:r2="6.1107941"
       sodipodi:arg1="0.84415399"
       sodipodi:arg2="1.3677528"
       inkscape:rounded="0"
       inkscape:randomized="0"
       d="m 54.698132,18.943619 -7.398191,1.523144 -5.018177,-5.645449 2.380014,-7.1685931 7.39819,-1.5231442 5.018177,5.6454493 z"
       inkscape:transform-center-x="0.12652961"
       inkscape:transform-center-y="-0.54418613"
       transform="matrix(0.99533837,0.20314601,-0.20311065,0.99551165,65.565145,27.101427)" /><text
       xml:space="preserve"
       transform="matrix(0.26458333,0,0,0.26458333,50.867178,28.665495)"
       id="text6618"
       style="font-style:normal;font-variant:normal;font-weight:bold;font-stretch:normal;font-size:40px;font-family:sans-serif;-inkscape-font-specification:'sans-serif Bold';white-space:pre;shape-inside:url(#rect6620);display:inline;fill:#000000;fill-opacity:1;stroke:none;stroke-width:3.77953;stroke-linecap:round;stroke-linejoin:miter;stroke-dasharray:none;stroke-opacity:1"><tspan
         x="212.56836"
         y="94.425781"
         id="tspan6080"><tspan
           style="font-stretch:semi-condensed;font-family:Bahnschrift;-inkscape-font-specification:'Bahnschrift Bold Semi-Condensed'"
           id="tspan6078">Au</tspan></tspan></text><rect
       style="fill:#ffffff;fill-opacity:0;stroke:none;stroke-width:4;stroke-linecap:square;stroke-linejoin:round;stroke-miterlimit:0.2;stroke-dasharray:none;stroke-opacity:1"
       id="rect5878"
       width="17.830645"
       height="15.701612"
       x="103.43548"
       y="42.580647" /></g><g
     inkscape:groupmode="layer"
     id="layer3"
     inkscape:label="Water"><rect
       style="fill:#ffffff;fill-opacity:0;stroke:none;stroke-width:4;stroke-linecap:square;stroke-linejoin:round;stroke-miterlimit:0.2;stroke-dasharray:none;stroke-opacity:1"
       id="rect5555"
       width="15.258064"
       height="15.879033"
       x="87.467743"
       y="42.669361"
       inkscape:label="Bounding Box" /><path
       style="fill:#149ae2;fill-opacity:1;fill-rule:nonzero;stroke:#000000;stroke-width:1;stroke-dasharray:none;stroke-opacity:1"
       d="m 95.157973,43.225977 c 0,0 -6.627519,4.509493 -6.627519,7.945296 -0.236685,3.435803 1.893575,6.227392 6.390824,6.227392 4.497244,0 6.864222,-2.147378 6.864222,-6.012656 0,-3.650539 -6.627527,-8.160032 -6.627527,-8.160032 z"
       id="path6215" /><text
       xml:space="preserve"
       transform="matrix(0.26458333,0,0,0.26458333,34.128923,36.325824)"
       id="text6590"
       style="font-style:normal;font-variant:normal;font-weight:bold;font-stretch:normal;font-size:33.3333px;line-height:0;font-family:sans-serif;-inkscape-font-specification:'sans-serif Bold';white-space:pre;shape-inside:url(#rect6592);display:inline;fill:#000000;fill-opacity:1;stroke:none;stroke-width:3.77953;stroke-linecap:round;stroke-linejoin:miter;stroke-dasharray:none;stroke-opacity:1"><tspan
         x="212.56836"
         y="67.466136"
         id="tspan6088"><tspan
           style="font-stretch:condensed;font-family:Bahnschrift;-inkscape-font-specification:'Bahnschrift Bold Condensed'"
           id="tspan6082">H</tspan><tspan
           style="font-stretch:condensed;font-size:65%;font-family:Bahnschrift;-inkscape-font-specification:'Bahnschrift Bold Condensed';baseline-shift:sub"
           id="tspan6084">2</tspan><tspan
           style="font-stretch:condensed;font-family:Bahnschrift;-inkscape-font-specification:'Bahnschrift Bold Condensed'"
           id="tspan6086">O</tspan></tspan></text></g><g
     inkscape:groupmode="layer"
     id="layer4"
     inkscape:label="Uranimum"><rect
       style="fill:#ffffff;fill-opacity:0;stroke:none;stroke-width:4;stroke-linecap:square;stroke-linejoin:round;stroke-miterlimit:0.2;stroke-dasharray:none;stroke-opacity:1"
       id="rect5662"
       width="16.05645"
       height="15.400928"
       x="-85.693542"
       y="42.758072"
       inkscape:label="Bounding Box"
       transform="scale(-1,1)" /><circle
       style="fill:#38ff39;fill-opacity:1;stroke:#000000;stroke-width:1;stroke-linecap:round;stroke-linejoin:miter;stroke-dasharray:none;stroke-opacity:1"
       id="path5484"
       cx="77.656296"
       cy="50.376015"
       r="6.7745395" /><text
       xml:space="preserve"
       transform="matrix(0.26458333,0,0,0.26458333,17.833309,29.41822)"
       id="text6584"
       style="font-style:normal;font-variant:normal;font-weight:bold;font-stretch:normal;font-size:40px;font-family:sans-serif;-inkscape-font-specification:'sans-serif Bold';white-space:pre;shape-inside:url(#rect6586);display:inline;fill:#000000;fill-opacity:1;stroke:none;stroke-width:3.77953;stroke-linecap:round;stroke-linejoin:miter;stroke-dasharray:none;stroke-opacity:1"><tspan
         x="212.56836"
         y="94.425781"
         id="tspan6092"><tspan
           style="font-family:Bahnschrift;-inkscape-font-specification:'Bahnschrift Bold'"
           id="tspan6090">U</tspan></tspan></text></g></svg>
